<svg t="1715872460640" class="icon" viewBox="0 0 1024 1024" version="1.1" xmlns="http://www.w3.org/2000/svg" p-id="943" width="200" height="200"><path d="M950.857143 667.282286h-108.690286V549.888c0-43.666286-32.768-78.994286-73.142857-79.140571H548.571429v-119.222858h109.568c40.374857-0.146286 73.142857-35.474286 73.142857-79.213714V79.213714C731.209143 35.474286 698.514286 0 658.066286 0H366.08c-40.374857 0-73.142857 35.474286-73.142857 79.140571v193.170286c0 43.739429 32.768 79.067429 73.142857 79.140572H475.428571v119.369142h-219.428571c-40.301714 0-73.069714 35.474286-73.142857 79.140572v117.394286H73.142857c-40.301714 0-72.996571 35.474286-73.069714 79.140571v198.363429C0 988.598857 32.768 1024 73.142857 1024h291.84c40.374857 0 73.142857-35.474286 73.142857-79.140571v-198.436572c0-43.666286-32.768-78.994286-73.142857-79.140571H255.853714V550.034286l0.073143-0.073143H769.024v117.321143H658.870857c-40.374857 0.073143-73.069714 35.474286-73.142857 79.140571v198.436572c0.073143 43.739429 32.768 79.067429 73.142857 79.140571H950.857143c40.374857 0 73.142857-35.474286 73.142857-79.140571v-198.436572c0-43.666286-32.768-78.994286-73.142857-79.140571z m-584.777143-394.971429v-193.097143l0.073143-0.073143h291.913143v193.097143l-0.073143 0.146286h-291.84v-0.073143z m-1.097143 474.185143v198.290286l-0.073143 0.073143H73.069714v-198.436572h291.84v0.073143zM950.857143 944.786286v0.073143H658.797714v-198.363429l0.073143-0.073143H950.857143v0.073143L950.857143 944.786286z" fill="#000000" p-id="944"></path></svg>